<svg width="500" height="500" viewBox="0 0 500 500" fill="none" xmlns="http://www.w3.org/2000/svg">
<path d="M119.114 110.359C118.751 110.437 118.428 110.64 118.201 110.934C117.974 111.227 117.858 111.591 117.873 111.962V143.385C117.837 143.609 117.849 143.84 117.91 144.059C117.971 144.279 118.079 144.482 118.226 144.656C118.374 144.829 118.557 144.969 118.764 145.065C118.971 145.16 119.196 145.21 119.424 145.21C119.652 145.21 119.877 145.16 120.084 145.065C120.29 144.969 120.474 144.829 120.621 144.656C120.769 144.482 120.877 144.279 120.938 144.059C120.999 143.84 121.011 143.609 120.974 143.385V111.962C120.98 111.741 120.938 111.521 120.853 111.317C120.768 111.114 120.64 110.93 120.479 110.779C120.318 110.628 120.127 110.512 119.918 110.44C119.709 110.367 119.488 110.34 119.268 110.359C119.216 110.356 119.165 110.356 119.114 110.359ZM99.2676 112.013C98.905 112.091 98.5815 112.294 98.3545 112.587C98.1275 112.881 98.0116 113.245 98.0272 113.615V141.731C97.9904 141.956 98.0029 142.186 98.0639 142.405C98.1248 142.625 98.2328 142.828 98.3803 143.002C98.5278 143.176 98.7113 143.315 98.9181 143.411C99.1248 143.506 99.3499 143.556 99.5777 143.556C99.8055 143.556 100.031 143.506 100.237 143.411C100.444 143.315 100.628 143.176 100.775 143.002C100.923 142.828 101.031 142.625 101.092 142.405C101.153 142.186 101.165 141.956 101.128 141.731V113.615C101.133 113.395 101.092 113.175 101.007 112.971C100.921 112.767 100.794 112.584 100.633 112.433C100.472 112.281 100.281 112.166 100.072 112.094C99.8632 112.021 99.6415 111.994 99.4214 112.013C99.3702 112.01 99.3189 112.01 99.2676 112.013ZM114.152 116.974C113.79 117.052 113.466 117.256 113.239 117.549C113.012 117.842 112.896 118.206 112.912 118.577V136.769C112.874 136.994 112.886 137.225 112.947 137.445C113.007 137.665 113.115 137.869 113.262 138.044C113.41 138.218 113.594 138.358 113.801 138.454C114.008 138.55 114.233 138.599 114.462 138.599C114.69 138.599 114.915 138.55 115.122 138.454C115.329 138.358 115.513 138.218 115.661 138.044C115.808 137.869 115.916 137.665 115.976 137.445C116.037 137.225 116.049 136.994 116.011 136.769V118.577C116.016 118.356 115.975 118.137 115.89 117.934C115.805 117.73 115.678 117.547 115.517 117.396C115.356 117.244 115.166 117.129 114.957 117.056C114.749 116.984 114.528 116.956 114.308 116.974C114.255 116.972 114.205 116.972 114.152 116.974ZM94.3061 118.628C93.9434 118.706 93.62 118.909 93.393 119.203C93.166 119.496 93.05 119.86 93.0657 120.231V135.115C93.0281 135.341 93.0399 135.571 93.1005 135.791C93.161 136.011 93.2688 136.215 93.4163 136.39C93.5638 136.564 93.7475 136.704 93.9545 136.8C94.1616 136.896 94.3871 136.946 94.6154 136.946C94.8436 136.946 95.0691 136.896 95.2762 136.8C95.4833 136.704 95.6669 136.564 95.8144 136.39C95.9619 136.215 96.0697 136.011 96.1302 135.791C96.1908 135.571 96.2026 135.341 96.165 135.115V120.231C96.1702 120.01 96.1289 119.791 96.0438 119.587C95.9586 119.384 95.8316 119.201 95.6709 119.049C95.5102 118.898 95.3194 118.783 95.1111 118.71C94.9027 118.637 94.6814 118.61 94.4616 118.628C94.4092 118.626 94.3584 118.626 94.3061 118.628ZM104.229 120.282C103.867 120.36 103.543 120.563 103.316 120.857C103.089 121.15 102.973 121.514 102.989 121.885V133.462C102.951 133.687 102.963 133.917 103.024 134.137C103.084 134.357 103.192 134.562 103.339 134.736C103.487 134.91 103.671 135.05 103.878 135.146C104.085 135.242 104.31 135.292 104.538 135.292C104.767 135.292 104.992 135.242 105.199 135.146C105.406 135.05 105.59 134.91 105.738 134.736C105.885 134.562 105.993 134.357 106.053 134.137C106.114 133.917 106.126 133.687 106.088 133.462V121.885C106.093 121.664 106.052 121.445 105.967 121.241C105.882 121.038 105.755 120.854 105.594 120.703C105.433 120.552 105.243 120.436 105.034 120.364C104.826 120.291 104.604 120.263 104.385 120.282C104.332 120.279 104.282 120.279 104.229 120.282ZM124.075 120.282C123.713 120.36 123.389 120.563 123.162 120.857C122.935 121.15 122.819 121.514 122.835 121.885V133.462C122.798 133.686 122.811 133.917 122.872 134.136C122.933 134.356 123.04 134.559 123.188 134.733C123.335 134.906 123.519 135.046 123.726 135.142C123.933 135.237 124.158 135.287 124.385 135.287C124.613 135.287 124.838 135.237 125.045 135.142C125.252 135.046 125.435 134.906 125.583 134.733C125.73 134.559 125.838 134.356 125.899 134.136C125.96 133.917 125.973 133.686 125.936 133.462V121.885C125.941 121.664 125.9 121.444 125.814 121.24C125.729 121.037 125.602 120.853 125.441 120.702C125.28 120.551 125.088 120.435 124.88 120.363C124.671 120.29 124.449 120.263 124.229 120.282C124.178 120.28 124.127 120.28 124.075 120.282ZM89.3446 123.59C88.9819 123.667 88.6585 123.871 88.4315 124.164C88.2044 124.458 88.0885 124.822 88.1042 125.192V130.154C88.0673 130.379 88.0798 130.609 88.1408 130.828C88.2018 131.048 88.3097 131.251 88.4572 131.425C88.6047 131.599 88.7882 131.738 88.995 131.834C89.2017 131.929 89.4268 131.979 89.6546 131.979C89.8825 131.979 90.1076 131.929 90.3143 131.834C90.5211 131.738 90.7046 131.599 90.8521 131.425C90.9996 131.251 91.1075 131.048 91.1685 130.828C91.2295 130.609 91.242 130.379 91.2051 130.154V125.192C91.2104 124.971 91.169 124.752 91.0836 124.548C90.9983 124.344 90.871 124.161 90.7099 124.01C90.5488 123.858 90.3577 123.743 90.1489 123.67C89.9401 123.598 89.7185 123.571 89.4984 123.59C89.4466 123.587 89.3947 123.587 89.3429 123.59H89.3446ZM109.191 123.59C108.828 123.667 108.505 123.871 108.278 124.164C108.051 124.458 107.935 124.822 107.95 125.192V130.154C107.913 130.379 107.925 130.61 107.985 130.83C108.046 131.05 108.153 131.254 108.301 131.428C108.448 131.602 108.632 131.742 108.839 131.838C109.046 131.934 109.272 131.984 109.5 131.984C109.728 131.984 109.954 131.934 110.161 131.838C110.368 131.742 110.552 131.602 110.699 131.428C110.847 131.254 110.954 131.05 111.015 130.83C111.075 130.61 111.087 130.379 111.05 130.154V125.192C111.055 124.972 111.014 124.753 110.928 124.549C110.843 124.345 110.716 124.162 110.555 124.011C110.395 123.86 110.204 123.744 109.996 123.672C109.787 123.599 109.566 123.571 109.346 123.59C109.294 123.587 109.243 123.587 109.191 123.59ZM129.037 123.59C128.674 123.667 128.351 123.871 128.124 124.164C127.897 124.458 127.781 124.822 127.796 125.192V130.154C127.76 130.379 127.772 130.609 127.833 130.828C127.894 131.048 128.002 131.251 128.15 131.425C128.297 131.599 128.481 131.738 128.687 131.834C128.894 131.929 129.119 131.979 129.347 131.979C129.575 131.979 129.8 131.929 130.007 131.834C130.213 131.738 130.397 131.599 130.544 131.425C130.692 131.251 130.8 131.048 130.861 130.828C130.922 130.609 130.934 130.379 130.897 130.154V125.192C130.903 124.971 130.861 124.752 130.776 124.548C130.691 124.344 130.563 124.161 130.402 124.01C130.241 123.858 130.05 123.743 129.841 123.67C129.632 123.598 129.411 123.571 129.191 123.59C129.139 123.587 129.088 123.587 129.037 123.59Z" fill="#F8F8F8"/>
<path d="M73.5 237.5C80.4036 237.5 86 231.904 86 225C86 218.096 80.4036 212.5 73.5 212.5C66.5964 212.5 61 218.096 61 225C61 231.904 66.5964 237.5 73.5 237.5Z" fill="#F8F8F8" stroke="#F8F8F8" stroke-width="12.8333" stroke-linecap="round" stroke-linejoin="round"/>
<path d="M123.5 233.333C130.404 233.333 136 227.737 136 220.833C136 213.93 130.404 208.333 123.5 208.333C116.596 208.333 111 213.93 111 220.833C111 227.737 116.596 233.333 123.5 233.333Z" fill="#F8F8F8" stroke="#F8F8F8" stroke-width="12.8333" stroke-linecap="round" stroke-linejoin="round"/>
<path d="M136 162.5L86 175V191.667L136 179.167V162.5Z" fill="#F8F8F8"/>
<path d="M86 225V191.667M86 191.667V175L136 162.5V179.167M86 191.667L136 179.167M136 220.833V179.167" stroke="#F8F8F8" stroke-width="12.8333" stroke-linecap="round" stroke-linejoin="round"/>
<g clip-path="url(#clip0_118_25)">
<path d="M222.591 187.5H219.682C218.075 187.5 216.773 188.898 216.773 190.625V200C216.773 214.609 205.047 226.332 191.175 224.879C179.084 223.611 170.227 211.936 170.227 198.887V190.625C170.227 188.898 168.925 187.5 167.318 187.5H164.409C162.802 187.5 161.5 188.898 161.5 190.625V198.469C161.5 215.977 173.131 231.584 189.136 233.955V240.625H178.955C177.347 240.625 176.045 242.023 176.045 243.75V246.875C176.045 248.602 177.347 250 178.955 250H208.045C209.653 250 210.955 248.602 210.955 246.875V243.75C210.955 242.023 209.653 240.625 208.045 240.625H197.864V234.029C213.447 231.732 225.5 217.363 225.5 200V190.625C225.5 188.898 224.198 187.5 222.591 187.5ZM193.5 218.75C203.14 218.75 210.955 210.355 210.955 200H195.44C194.369 200 193.5 199.301 193.5 198.438V195.312C193.5 194.449 194.369 193.75 195.44 193.75H210.955V187.5H195.44C194.369 187.5 193.5 186.801 193.5 185.938V182.812C193.5 181.949 194.369 181.25 195.44 181.25H210.955V175H195.44C194.369 175 193.5 174.301 193.5 173.438V170.312C193.5 169.449 194.369 168.75 195.44 168.75H210.955C210.955 158.395 203.14 150 193.5 150C183.86 150 176.045 158.395 176.045 168.75V200C176.045 210.355 183.86 218.75 193.5 218.75Z" fill="#F8F8F8"/>
</g>
<path d="M244.75 200C244.75 175.837 264.337 156.25 288.5 156.25C312.662 156.25 332.25 175.837 332.25 200C332.25 224.162 312.662 243.75 288.5 243.75C264.337 243.75 244.75 224.162 244.75 200ZM286.347 162.562C286.385 163.088 286.271 163.613 286.021 164.077C285.77 164.54 285.392 164.922 284.931 165.178L273.234 171.675C272.995 171.808 272.74 171.909 272.475 171.975L271.266 172.278L271.941 177L282.862 179.188C283.472 179.307 284.032 179.608 284.469 180.05L297.875 173.344V167.553C297.875 166.808 298.141 166.088 298.625 165.522C299.109 164.956 299.78 164.581 300.516 164.466C295.959 162.926 291.148 162.282 286.347 162.562ZM262.816 172.675C256.728 178.386 252.724 185.968 251.441 194.216L261.337 189.269C261.41 189.099 261.498 188.935 261.6 188.781L268.594 178.303C269.012 177.676 269.642 177.221 270.369 177.022L269.744 172.659L265.9 173.619C265.35 173.76 264.771 173.747 264.227 173.581C263.684 173.415 263.196 173.103 262.819 172.678M251.206 196.084C251.072 197.366 251.003 198.669 251.003 199.984V200.016C251.003 204.278 251.719 208.378 253.031 212.197L261.5 221.609C261.778 221.275 262.123 221.002 262.513 220.809L268.131 217.997C268.423 217.852 268.735 217.754 269.056 217.706L270.331 202.422C269.527 202.296 268.804 201.861 268.316 201.209L261.706 192.394C261.423 192.017 261.228 191.581 261.138 191.119L251.206 196.084ZM260.844 223.219L254.838 216.544C256.628 220.18 258.995 223.503 261.847 226.384C261.501 225.674 261.206 224.94 260.963 224.188C260.862 223.875 260.822 223.546 260.844 223.219ZM288.5 237.5C296.519 237.5 303.95 234.981 310.047 230.694L310.816 224.559C310.456 224.607 310.091 224.591 309.737 224.512L300.322 222.419C299.67 222.274 299.081 221.923 298.644 221.419L283.55 228.387C283.546 228.429 283.54 228.471 283.534 228.513L282.719 234.231C282.653 234.681 282.494 235.106 282.263 235.481C283.634 236.25 285.072 236.9 286.513 237.45C287.169 237.481 287.831 237.5 288.5 237.5ZM312.484 223.806L311.784 229.4C318.473 224.106 323.156 216.689 325.062 208.375L320.491 210.659C320.427 210.823 320.35 210.981 320.259 211.131L313.097 223.069C312.932 223.345 312.725 223.593 312.484 223.806ZM320.628 208.844L325.45 206.434C325.812 204.341 326 202.194 326 200C326 191.791 323.363 184.197 318.888 178.022C318.809 178.727 318.493 179.384 317.991 179.884L315.225 182.65C314.92 182.955 314.556 183.193 314.155 183.35C313.754 183.507 313.324 183.579 312.894 183.562L314.103 199.641C314.424 199.852 314.702 200.122 314.925 200.434L320.122 207.709C320.372 208.053 320.541 208.444 320.628 208.844ZM271.909 202.263L270.609 217.862C270.838 217.947 271.056 218.058 271.259 218.194L282.175 225.469C282.662 225.794 283.047 226.25 283.287 226.784L297.944 220.022C297.898 219.806 297.875 219.586 297.875 219.366V206.803C297.874 206.352 297.971 205.907 298.159 205.497L284.084 197.287C283.876 197.44 283.649 197.566 283.409 197.662L271.972 202.234L271.909 202.263ZM285.091 196.066L299.163 204.275C299.372 204.122 299.6 203.996 299.841 203.9L311.222 199.35C311.628 199.187 312.063 199.112 312.5 199.128L311.291 183.05L299.391 175.909C298.959 175.65 298.597 175.291 298.334 174.862L285.259 181.4C285.334 181.672 285.375 181.956 285.375 182.25V194.759C285.376 195.21 285.279 195.656 285.091 196.066Z" fill="#F8F8F8"/>
<g clip-path="url(#clip1_118_25)">
<path fill-rule="evenodd" clip-rule="evenodd" d="M422.333 166.667C425.512 166.667 428.142 168.475 430.067 170.375C432.071 172.346 433.908 174.996 435.542 177.917C438.821 183.775 441.675 191.429 443.562 198.992C445.437 206.496 446.475 214.333 445.812 220.496C445.146 226.683 441.958 233.333 434.833 233.333C428.683 233.333 423.783 230.167 419.775 226.954L418.312 225.75L416.262 224.021L414.412 222.487C410.167 219.05 406.396 216.667 401.5 216.667C396.604 216.667 392.833 219.05 388.587 222.487L386.737 224.021L384.687 225.75L383.229 226.954C379.212 230.167 374.312 233.333 368.167 233.333C361.037 233.333 357.85 226.683 357.187 220.496C356.529 214.329 357.562 206.496 359.437 198.992C361.325 191.429 364.179 183.775 367.458 177.913C369.092 174.996 370.929 172.346 372.933 170.371C374.858 168.475 377.487 166.667 380.667 166.667C382.812 166.667 384.908 167.179 386.971 167.792L389.437 168.546C389.849 168.674 390.258 168.794 390.667 168.908C394.271 169.942 397.958 170.833 401.5 170.833C405.042 170.833 408.729 169.942 412.333 168.908L416.021 167.796C418.096 167.183 420.208 166.667 422.333 166.667ZM422.333 175C420.737 175 419.071 175.483 417.454 176.013L415.546 176.642L414.625 176.925C410.937 177.975 406.292 179.167 401.5 179.167C396.708 179.167 392.062 177.975 388.375 176.925L387.458 176.642L385.546 176.013C383.929 175.479 382.262 175 380.667 175C378.925 175.325 377.362 177.438 376.183 179.396L375.525 180.542L374.733 181.983C371.892 187.058 369.275 193.983 367.525 201.013C365.879 207.579 365.079 213.871 365.383 218.554L365.492 219.775L365.575 220.508L365.7 221.375C365.987 223.046 366.608 225 368.167 225C371.55 225 374.375 223.317 377.887 220.525L379.567 219.158L382.733 216.508L384.167 215.342C388.6 211.829 394.146 208.333 401.5 208.333C408.854 208.333 414.4 211.833 418.833 215.342L420.271 216.508L423.437 219.158L425.112 220.525C428.625 223.317 431.446 225 434.833 225C436.25 225 436.892 223.388 437.212 221.838L437.371 220.929L437.525 219.608C438.037 214.833 437.246 208.088 435.479 201.013C433.871 194.571 431.537 188.213 428.971 183.288L427.475 180.538L426.817 179.4C425.637 177.438 424.075 175.325 422.333 175ZM386.917 183.333C389.679 183.333 392.329 184.431 394.282 186.384C396.236 188.338 397.333 190.987 397.333 193.75C397.333 196.513 396.236 199.162 394.282 201.116C392.329 203.069 389.679 204.167 386.917 204.167C384.154 204.167 381.504 203.069 379.551 201.116C377.597 199.162 376.5 196.513 376.5 193.75C376.5 190.987 377.597 188.338 379.551 186.384C381.504 184.431 384.154 183.333 386.917 183.333ZM416.083 183.333C417.104 183.333 418.089 183.708 418.851 184.386C419.614 185.064 420.101 185.999 420.221 187.013L420.25 187.5V189.583H422.333C423.395 189.585 424.417 189.991 425.189 190.72C425.961 191.449 426.426 192.446 426.488 193.506C426.55 194.566 426.205 195.61 425.524 196.424C424.842 197.239 423.875 197.762 422.821 197.888L422.333 197.917H420.25V200C420.249 201.062 419.842 202.083 419.113 202.856C418.384 203.628 417.388 204.093 416.327 204.155C415.267 204.217 414.223 203.872 413.409 203.191C412.595 202.509 412.071 201.542 411.946 200.488L411.917 200V197.917H409.833C408.771 197.915 407.75 197.509 406.978 196.78C406.205 196.051 405.741 195.054 405.678 193.994C405.616 192.934 405.961 191.89 406.643 191.076C407.324 190.261 408.291 189.738 409.346 189.613L409.833 189.583H411.917V187.5C411.917 186.395 412.356 185.335 413.137 184.554C413.918 183.772 414.978 183.333 416.083 183.333ZM386.917 191.667C386.364 191.667 385.834 191.886 385.443 192.277C385.053 192.668 384.833 193.197 384.833 193.75C384.833 194.303 385.053 194.832 385.443 195.223C385.834 195.614 386.364 195.833 386.917 195.833C387.469 195.833 387.999 195.614 388.39 195.223C388.78 194.832 389 194.303 389 193.75C389 193.197 388.78 192.668 388.39 192.277C387.999 191.886 387.469 191.667 386.917 191.667Z" fill="#F8F8F8"/>
</g>
<g filter="url(#filter0_iiiii_118_25)">
<path d="M108.438 327.297C106.63 327.49 102.336 328.33 95.556 329.815C88.8406 331.235 83.9009 332.365 80.7369 333.205C80.7369 334.625 80.7369 337.628 80.7369 342.212C80.8015 346.732 80.8984 350.574 81.0275 353.738C81.0921 354.965 81.2212 356.321 81.4149 357.806C81.6732 359.291 81.8346 360.357 81.8992 361.003C82.2866 363.327 82.4803 364.715 82.4803 365.167C82.4803 365.878 82.1252 366.911 81.4149 368.267C80.7692 369.687 80.2204 370.398 79.7684 370.398C79.3164 370.398 78.8967 370.172 78.5092 369.72C78.1218 369.268 77.8635 368.719 77.7344 368.073C77.0887 365.167 76.6367 360.454 76.3784 353.932C76.0555 345.99 75.8941 339.791 75.8941 335.336C75.5067 335.4 74.861 335.529 73.957 335.723C73.1176 335.852 72.375 335.949 71.7293 336.014C71.0836 336.014 70.4056 335.852 69.6953 335.529C68.985 335.206 68.6299 334.819 68.6299 334.367C68.6299 333.85 68.7913 333.463 69.1142 333.205C69.5016 332.946 69.9213 332.753 70.3733 332.624C70.8253 332.43 71.1481 332.301 71.3419 332.236C73.6664 331.268 75.2161 330.654 75.991 330.396L75.2161 308.797C70.4379 309.572 66.9187 309.959 64.6588 309.959C62.1405 309.959 60.3971 309.346 59.4285 308.119C58.5245 306.892 58.0725 305.762 58.0725 304.729C58.0725 304.148 58.4922 303.857 59.3317 303.857C59.4608 303.857 60.2034 304.083 61.5593 304.535C62.9799 304.987 64.2068 305.213 65.2399 305.213C67.3062 305.213 70.5993 304.89 75.1193 304.245C75.1193 304.116 75.1515 303.631 75.2161 302.792C75.2807 301.888 75.5712 301.081 76.0878 300.37C76.4107 299.789 76.7012 299.402 76.9595 299.208C77.2178 299.014 77.5084 298.918 77.8312 298.918C79.0581 298.918 79.6715 300.274 79.6715 302.986C80.5755 302.792 82.6095 302.404 85.7735 301.823C89.002 301.242 92.6826 300.693 96.8151 300.177C100.948 299.66 104.531 299.402 107.566 299.402C110.02 299.402 111.247 299.886 111.247 300.855C111.247 301.63 110.956 302.63 110.375 303.857C109.858 305.084 109.245 305.698 108.535 305.698C108.276 305.698 108.018 305.568 107.76 305.31C107.502 304.987 107.308 304.794 107.179 304.729C106.598 304.471 105.758 304.342 104.66 304.342C102.659 304.342 98.6554 304.761 92.6503 305.601C86.7097 306.44 82.4158 307.15 79.7684 307.731L80.4464 328.749C83.9332 327.845 89.2926 326.619 96.5245 325.069C103.756 323.519 107.986 322.744 109.213 322.744C109.729 322.744 110.084 322.841 110.278 323.035C110.472 323.164 110.569 323.487 110.569 324.003C110.569 326.005 109.858 327.103 108.438 327.297ZM163.629 330.396C163.177 330.783 162.24 331.138 160.82 331.461C159.399 331.72 158.431 331.881 157.914 331.946C158.431 334.399 158.689 335.594 158.689 335.529C159.141 337.144 159.625 339.371 160.142 342.212C161.304 348.734 162.499 354.287 163.726 358.872C164.048 360.357 164.21 361.229 164.21 361.487C164.21 362.133 163.952 362.681 163.435 363.133C162.918 363.585 162.305 363.811 161.595 363.811C160.949 363.811 160.368 363.456 159.851 362.746C159.335 362.1 158.98 361.519 158.786 361.003C158.205 358.807 157.656 356.353 157.139 353.641C156.687 350.929 156.138 347.669 155.493 343.859C155.234 342.18 154.815 340.114 154.234 337.66C153.652 335.142 153.265 333.495 153.071 332.72C149.262 333.237 142.708 334.27 133.409 335.82L127.792 336.788L125.758 342.503L123.046 350.251C120.786 357.29 119.172 362.714 118.203 366.523C118.009 367.427 117.622 368.17 117.041 368.751C116.46 369.397 115.749 369.72 114.91 369.72C114.2 369.72 113.586 369.526 113.07 369.138C112.618 368.751 112.392 368.202 112.392 367.492C112.392 366.782 112.779 365.264 113.554 362.94C114.329 360.68 114.781 359.324 114.91 358.872C115.168 358.226 115.685 356.741 116.46 354.416C117.299 351.898 118.364 348.863 119.656 345.312C121.012 341.696 121.916 339.307 122.368 338.144C119.075 338.919 116.621 339.533 115.007 339.985C112.553 340.63 111.036 340.953 110.454 340.953C109.744 340.953 109.195 340.695 108.808 340.178C108.485 339.597 108.324 338.984 108.324 338.338C108.324 337.563 108.517 337.047 108.905 336.788C109.292 336.466 109.938 336.175 110.842 335.917C113.296 335.336 115.878 334.754 118.59 334.173C121.367 333.592 123.272 333.205 124.305 333.011C124.951 331.138 125.435 329.556 125.758 328.265C126.016 327.426 126.339 326.393 126.726 325.166C127.178 323.874 127.663 322.292 128.179 320.42L129.632 315.48C132.086 306.828 133.506 301.888 133.894 300.661C134.217 299.757 134.507 299.047 134.765 298.53C135.088 298.014 135.508 297.755 136.025 297.755C137.316 297.755 138.478 297.949 139.511 298.336C139.641 298.207 139.834 297.949 140.093 297.562C140.415 297.11 140.738 296.819 141.061 296.69C141.449 296.496 141.933 296.399 142.514 296.399C143.676 296.399 145 297.723 146.485 300.37C148.035 303.018 149.52 306.15 150.94 309.765C151.78 311.896 152.845 315.093 154.137 319.354C155.428 323.551 156.268 326.328 156.655 327.684C157.624 327.555 158.431 327.393 159.076 327.2C159.787 326.941 160.239 326.78 160.432 326.715C160.755 326.586 161.11 326.36 161.498 326.037C161.885 325.715 162.24 325.489 162.563 325.359C162.886 325.166 163.241 325.166 163.629 325.359C164.468 325.747 164.888 326.554 164.888 327.781C164.888 328.233 164.759 328.717 164.5 329.234C164.307 329.75 164.016 330.138 163.629 330.396ZM147.26 312.09C146.356 309.701 145.194 307.247 143.773 304.729C142.353 302.211 141.158 300.629 140.189 299.983L139.124 302.501C137.897 304.955 136.961 307.183 136.315 309.184C134.765 313.833 132.312 321.517 128.954 332.236L140.286 330.299L149.584 328.846L152.2 328.459C151.877 327.297 151.199 324.875 150.166 321.195C149.132 317.449 148.164 314.415 147.26 312.09ZM213.904 358.484C213.452 358.484 210.417 355.03 204.799 348.121C199.246 341.147 194.662 335.206 191.046 330.299C190.529 329.589 188.883 327.232 186.106 323.229C182.038 317.288 179.52 313.704 178.551 312.477L178.358 319.935L178.261 327.2C178.261 331.784 178.196 336.756 178.067 342.116C178.002 347.475 177.906 351.737 177.776 354.901C177.712 355.675 177.357 356.386 176.711 357.031C176.13 357.677 175.517 358 174.871 358C174.161 358 173.644 357.806 173.321 357.419C173.063 356.967 172.934 356.127 172.934 354.901C172.934 354.126 173.063 351.737 173.321 347.733C173.902 340.308 174.193 334.076 174.193 329.04C174.193 325.037 174.257 321.259 174.387 317.708C174.516 314.092 174.58 311.864 174.58 311.025L174.677 308.216V307.925C174.677 307.215 174.774 306.666 174.968 306.279C175.226 305.827 175.71 305.601 176.421 305.601H176.905C177.615 305.601 179.003 306.892 181.07 309.475C183.2 311.993 185.88 315.448 189.109 319.839C189.819 320.743 190.497 321.647 191.143 322.551C191.788 323.39 192.402 324.197 192.983 324.972C196.664 329.686 198.601 332.172 198.794 332.43C207.963 344.117 212.968 350.768 213.807 352.382C213.678 351.866 213.452 350.671 213.129 348.799C212.806 346.926 212.483 344.472 212.161 341.438C211.902 338.403 211.773 335.271 211.773 332.042C211.773 326.296 211.224 318.709 210.127 309.281C209.804 306.182 209.642 304.277 209.642 303.567C209.642 301.113 211.031 299.886 213.807 299.886C214.453 299.886 214.937 300.564 215.26 301.92C215.583 303.212 215.809 305.988 215.938 310.25C216.067 314.511 216.132 321.324 216.132 330.686C216.132 333.657 216.229 336.562 216.422 339.404C216.681 342.245 216.907 344.763 217.1 346.958C217.423 349.993 217.584 352.285 217.584 353.835L217.681 357.322C217.681 358.097 216.422 358.484 213.904 358.484ZM284.651 301.242C284.457 301.242 283.779 301.081 282.617 300.758C281.519 300.37 280.486 300.177 279.517 300.177C276.418 300.177 272.899 300.338 268.96 300.661C265.021 300.984 261.76 301.436 259.178 302.017C259.371 305.116 259.533 310.024 259.662 316.739C259.856 323.39 259.952 330.396 259.952 337.757C259.952 340.856 259.888 344.311 259.759 348.121C259.694 351.93 259.565 354.287 259.371 355.191C259.242 355.901 258.79 356.483 258.015 356.935C257.305 357.387 256.562 357.613 255.788 357.613C255.336 357.613 254.948 357.419 254.625 357.031C254.302 356.644 254.141 356.192 254.141 355.675L254.238 352.285C254.625 347.249 254.819 341.05 254.819 333.689C254.819 328.394 254.754 322.357 254.625 315.577C254.496 308.732 254.367 304.503 254.238 302.889C241.324 304.309 232.703 305.633 228.377 306.86C227.602 307.118 226.731 307.247 225.762 307.247C224.6 307.247 223.47 306.828 222.372 305.988C221.274 305.149 220.726 304.245 220.726 303.276C220.726 302.63 220.919 302.178 221.307 301.92C221.694 301.597 222.178 301.436 222.76 301.436C226.44 301.242 229.539 301.048 232.058 300.855C237.805 300.338 245.036 299.531 253.754 298.433C253.754 296.432 253.786 295.011 253.85 294.172C253.98 293.332 254.206 292.912 254.528 292.912C255.755 292.912 256.853 293.397 257.822 294.365C258.015 294.559 258.177 295.076 258.306 295.915C258.435 296.69 258.5 297.206 258.5 297.465C259.92 297.4 262.245 297.077 265.473 296.496C272.447 295.398 277.225 294.85 279.808 294.85C282.907 294.85 284.974 295.237 286.007 296.012C286.717 296.528 287.072 297.465 287.072 298.821C287.072 299.337 286.846 299.886 286.394 300.467C285.942 300.984 285.361 301.242 284.651 301.242ZM340.157 355.288C339.511 355.288 338.898 355.191 338.317 354.997C337.736 354.739 336.864 354.287 335.702 353.641C331.634 351.252 326.307 348.928 319.72 346.668C316.815 345.699 313.36 344.698 309.357 343.665C305.418 342.568 302.319 341.76 300.059 341.244L300.737 353.738C300.801 355.482 301.027 356.935 301.415 358.097C301.802 359.324 301.996 360.099 301.996 360.421C301.996 361.132 301.641 361.713 300.93 362.165C300.22 362.681 299.477 362.94 298.703 362.94C297.734 362.94 297.121 362.262 296.862 360.906C296.862 360.777 296.765 360.195 296.572 359.162C296.443 358.129 296.378 356.676 296.378 354.804C296.378 353.577 296.249 350.962 295.991 346.958C295.926 345.602 295.861 344.311 295.797 343.084C295.732 341.793 295.7 340.663 295.7 339.694C295.506 339.5 295.248 339.274 294.925 339.016C294.667 338.758 294.441 338.403 294.247 337.951C294.053 337.37 293.892 336.756 293.763 336.11C293.634 335.465 293.569 334.98 293.569 334.658C293.569 334.206 293.698 333.85 293.957 333.592C294.215 333.334 294.602 333.043 295.119 332.72C294.731 316.578 294.538 307.344 294.538 305.02C294.538 302.953 294.57 301.048 294.635 299.305C294.699 297.562 294.731 296.399 294.731 295.818C294.344 295.883 293.182 296.044 291.245 296.302C289.307 296.561 287.758 296.819 286.595 297.077C282.463 298.046 279.331 298.982 277.2 299.886C275.005 300.726 272.906 301.694 270.905 302.792C270.324 303.179 269.775 303.502 269.258 303.76C268.677 303.954 268.128 304.051 267.612 304.051C267.095 304.051 266.643 303.825 266.256 303.373C265.868 302.856 265.674 302.243 265.674 301.533C265.674 300.306 267.741 298.885 271.873 297.271C276.006 295.657 280.494 294.333 285.336 293.3C288.048 292.719 291.503 292.234 295.7 291.847C299.897 291.395 303.804 291.169 307.42 291.169C313.618 291.169 318.881 291.847 323.207 293.203C327.598 294.559 330.891 296.464 333.087 298.918C335.347 301.371 336.477 304.18 336.477 307.344C336.477 311.412 335.314 314.899 332.99 317.805C330.665 320.71 327.566 323.229 323.692 325.359C319.882 327.49 314.684 329.912 308.098 332.624C306.419 333.398 304.74 334.109 303.061 334.754C301.447 335.4 300.349 335.852 299.768 336.11C299.768 336.498 299.8 336.788 299.865 336.982C306.838 338.532 313.715 340.308 320.495 342.309L322.529 342.89C329.567 345.021 334.765 346.7 338.123 347.927C341.481 349.089 343.16 350.058 343.16 350.833C343.16 351.607 342.837 352.544 342.191 353.641C341.545 354.739 340.867 355.288 340.157 355.288ZM306.645 295.334C302.641 295.334 300.123 295.398 299.09 295.528C299.025 295.98 298.929 297.045 298.799 298.724C298.735 300.403 298.703 302.082 298.703 303.76L299.09 319.257L299.477 331.268C300.059 331.203 301.189 330.912 302.867 330.396C304.611 329.815 306.064 329.266 307.226 328.749C315.426 325.456 321.528 322.163 325.532 318.87C329.6 315.512 331.634 311.67 331.634 307.344C331.634 305.213 330.697 303.244 328.825 301.436C326.952 299.628 324.111 298.175 320.302 297.077C316.556 295.915 312.004 295.334 306.645 295.334ZM390.522 330.396C390.07 330.783 389.134 331.138 387.714 331.461C386.293 331.72 385.324 331.881 384.808 331.946C385.324 334.399 385.583 335.594 385.583 335.529C386.035 337.144 386.519 339.371 387.036 342.212C388.198 348.734 389.392 354.287 390.619 358.872C390.942 360.357 391.104 361.229 391.104 361.487C391.104 362.133 390.845 362.681 390.329 363.133C389.812 363.585 389.199 363.811 388.488 363.811C387.843 363.811 387.262 363.456 386.745 362.746C386.228 362.1 385.873 361.519 385.68 361.003C385.098 358.807 384.55 356.353 384.033 353.641C383.581 350.929 383.032 347.669 382.387 343.859C382.128 342.18 381.709 340.114 381.127 337.66C380.546 335.142 380.159 333.495 379.965 332.72C376.155 333.237 369.601 334.27 360.303 335.82L354.686 336.788L352.652 342.503L349.94 350.251C347.68 357.29 346.065 362.714 345.097 366.523C344.903 367.427 344.516 368.17 343.935 368.751C343.353 369.397 342.643 369.72 341.804 369.72C341.093 369.72 340.48 369.526 339.963 369.138C339.511 368.751 339.285 368.202 339.285 367.492C339.285 366.782 339.673 365.264 340.448 362.94C341.223 360.68 341.675 359.324 341.804 358.872C342.062 358.226 342.579 356.741 343.353 354.416C344.193 351.898 345.258 348.863 346.55 345.312C347.906 341.696 348.81 339.307 349.262 338.144C345.968 338.919 343.515 339.533 341.901 339.985C339.447 340.63 337.929 340.953 337.348 340.953C336.638 340.953 336.089 340.695 335.702 340.178C335.379 339.597 335.217 338.984 335.217 338.338C335.217 337.563 335.411 337.047 335.799 336.788C336.186 336.466 336.832 336.175 337.736 335.917C340.189 335.336 342.772 334.754 345.484 334.173C348.261 333.592 350.166 333.205 351.199 333.011C351.844 331.138 352.329 329.556 352.652 328.265C352.91 327.426 353.233 326.393 353.62 325.166C354.072 323.874 354.556 322.292 355.073 320.42L356.526 315.48C358.98 306.828 360.4 301.888 360.788 300.661C361.11 299.757 361.401 299.047 361.659 298.53C361.982 298.014 362.402 297.755 362.918 297.755C364.21 297.755 365.372 297.949 366.405 298.336C366.534 298.207 366.728 297.949 366.986 297.562C367.309 297.11 367.632 296.819 367.955 296.69C368.342 296.496 368.827 296.399 369.408 296.399C370.57 296.399 371.894 297.723 373.379 300.37C374.929 303.018 376.414 306.15 377.834 309.765C378.674 311.896 379.739 315.093 381.031 319.354C382.322 323.551 383.161 326.328 383.549 327.684C384.517 327.555 385.324 327.393 385.97 327.2C386.68 326.941 387.132 326.78 387.326 326.715C387.649 326.586 388.004 326.36 388.392 326.037C388.779 325.715 389.134 325.489 389.457 325.359C389.78 325.166 390.135 325.166 390.522 325.359C391.362 325.747 391.782 326.554 391.782 327.781C391.782 328.233 391.652 328.717 391.394 329.234C391.2 329.75 390.91 330.138 390.522 330.396ZM374.154 312.09C373.25 309.701 372.087 307.247 370.667 304.729C369.246 302.211 368.052 300.629 367.083 299.983L366.018 302.501C364.791 304.955 363.855 307.183 363.209 309.184C361.659 313.833 359.206 321.517 355.848 332.236L367.18 330.299L376.478 328.846L379.093 328.459C378.771 327.297 378.093 324.875 377.059 321.195C376.026 317.449 375.058 314.415 374.154 312.09ZM421.33 328.749C419.328 329.653 417.294 330.493 415.228 331.268C413.161 332.042 411.805 332.527 411.16 332.72C411.483 340.598 411.644 347.314 411.644 352.867C411.644 354.675 411.838 356.16 412.225 357.322C412.677 358.42 412.903 359.13 412.903 359.453C412.903 360.163 412.548 360.744 411.838 361.196C411.127 361.713 410.385 361.971 409.61 361.971C408.641 361.971 408.028 361.293 407.77 359.937C407.77 359.808 407.673 359.227 407.479 358.194C407.35 357.161 407.285 355.708 407.285 353.835C407.285 348.799 407.092 340.534 406.704 329.04C406.511 323.229 406.414 319.096 406.414 316.642C406.414 314.576 406.446 312.671 406.511 310.928C406.575 309.12 406.607 307.893 406.607 307.247C402.539 308.345 399.02 309.475 396.05 310.637C395.082 311.089 393.726 311.832 391.982 312.865C391.207 313.317 390.432 313.737 389.658 314.124C388.947 314.511 388.398 314.705 388.011 314.705C387.494 314.705 387.042 314.479 386.655 314.027C386.268 313.575 386.074 313.026 386.074 312.381C386.074 311.541 387.301 310.508 389.754 309.281C392.208 307.99 395.178 306.763 398.665 305.601C402.217 304.438 405.477 303.567 408.448 302.986C411.935 302.34 415.809 302.017 420.07 302.017C425.946 302.017 430.563 302.792 433.921 304.342C437.279 305.827 438.957 308.087 438.957 311.121C438.957 314.931 437.408 318.224 434.308 321.001C431.209 323.713 426.883 326.296 421.33 328.749ZM420.07 305.891C417.1 305.891 414.065 306.085 410.966 306.472C410.901 306.989 410.805 308.183 410.675 310.056C410.611 311.929 410.579 313.704 410.579 315.383L410.675 322.454C410.74 324.003 410.772 325.973 410.772 328.362C412.128 328.233 415.002 327.264 419.392 325.456C423.654 323.584 427.238 321.517 430.144 319.257C433.049 316.933 434.502 314.479 434.502 311.896C434.502 309.701 433.114 308.151 430.337 307.247C427.561 306.343 424.138 305.891 420.07 305.891Z" fill="#F2771E"/>
</g>
<defs>
<filter id="filter0_iiiii_118_25" x="51.7291" y="284.826" width="393.572" height="91.9155" filterUnits="userSpaceOnUse" color-interpolation-filters="sRGB">
<feFlood flood-opacity="0" result="BackgroundImageFix"/>
<feBlend mode="normal" in="SourceGraphic" in2="BackgroundImageFix" result="shape"/>
<feColorMatrix in="SourceAlpha" type="matrix" values="0 0 0 0 0 0 0 0 0 0 0 0 0 0 0 0 0 0 127 0" result="hardAlpha"/>
<feOffset dx="-6.34345" dy="12.6869"/>
<feGaussianBlur stdDeviation="3.17173"/>
<feComposite in2="hardAlpha" operator="arithmetic" k2="-1" k3="1"/>
<feColorMatrix type="matrix" values="0 0 0 0 0 0 0 0 0 0 0 0 0 0 0 0 0 0 1 0"/>
<feBlend mode="normal" in2="shape" result="effect1_innerShadow_118_25"/>
<feColorMatrix in="SourceAlpha" type="matrix" values="0 0 0 0 0 0 0 0 0 0 0 0 0 0 0 0 0 0 127 0" result="hardAlpha"/>
<feOffset dx="6.34345" dy="-3.17173"/>
<feGaussianBlur stdDeviation="7.61214"/>
<feComposite in2="hardAlpha" operator="arithmetic" k2="-1" k3="1"/>
<feColorMatrix type="matrix" values="0 0 0 0 1 0 0 0 0 1 0 0 0 0 1 0 0 0 1 0"/>
<feBlend mode="normal" in2="effect1_innerShadow_118_25" result="effect2_innerShadow_118_25"/>
<feColorMatrix in="SourceAlpha" type="matrix" values="0 0 0 0 0 0 0 0 0 0 0 0 0 0 0 0 0 0 127 0" result="hardAlpha"/>
<feOffset dx="6.34345" dy="-6.34345"/>
<feGaussianBlur stdDeviation="3.17173"/>
<feComposite in2="hardAlpha" operator="arithmetic" k2="-1" k3="1"/>
<feColorMatrix type="matrix" values="0 0 0 0 0.978022 0 0 0 0 0 0 0 0 0 1 0 0 0 1 0"/>
<feBlend mode="normal" in2="effect2_innerShadow_118_25" result="effect3_innerShadow_118_25"/>
<feColorMatrix in="SourceAlpha" type="matrix" values="0 0 0 0 0 0 0 0 0 0 0 0 0 0 0 0 0 0 127 0" result="hardAlpha"/>
<feOffset dx="-6.34345" dy="-6.34345"/>
<feGaussianBlur stdDeviation="6.34345"/>
<feComposite in2="hardAlpha" operator="arithmetic" k2="-1" k3="1"/>
<feColorMatrix type="matrix" values="0 0 0 0 0 0 0 0 0 0 0 0 0 0 0 0 0 0 1 0"/>
<feBlend mode="normal" in2="effect3_innerShadow_118_25" result="effect4_innerShadow_118_25"/>
<feColorMatrix in="SourceAlpha" type="matrix" values="0 0 0 0 0 0 0 0 0 0 0 0 0 0 0 0 0 0 127 0" result="hardAlpha"/>
<feOffset dx="-6.34345" dy="6.34345"/>
<feGaussianBlur stdDeviation="6.34345"/>
<feComposite in2="hardAlpha" operator="arithmetic" k2="-1" k3="1"/>
<feColorMatrix type="matrix" values="0 0 0 0 1 0 0 0 0 1 0 0 0 0 1 0 0 0 1 0"/>
<feBlend mode="normal" in2="effect4_innerShadow_118_25" result="effect5_innerShadow_118_25"/>
</filter>
<clipPath id="clip0_118_25">
<rect width="64" height="100" fill="white" transform="translate(161.5 150)"/>
</clipPath>
<clipPath id="clip1_118_25">
<rect width="100" height="100" fill="white" transform="translate(351.5 150)"/>
</clipPath>
</defs>
</svg>
