<svg width="60" height="60" viewBox="0 0 60 60" fill="none" xmlns="http://www.w3.org/2000/svg">
<path d="M41.4999 14.55C39.791 12.5991 38.8492 10.0936 38.8499 7.5H31.1249V38.5C31.0653 40.1776 30.3571 41.7665 29.1493 42.9323C27.9416 44.0981 26.3285 44.7498 24.6499 44.75C21.0999 44.75 18.1499 41.85 18.1499 38.25C18.1499 33.95 22.2999 30.725 26.5749 32.05V24.15C17.9499 23 10.3999 29.7 10.3999 38.25C10.3999 46.575 17.2999 52.5 24.6249 52.5C32.4749 52.5 38.8499 46.125 38.8499 38.25V22.525C41.9824 24.7746 45.7433 25.9816 49.5999 25.975V18.25C49.5999 18.25 44.8999 18.475 41.4999 14.55Z" fill="white"/>
</svg>
